<mxfile host="app.diagrams.net" modified="2024-02-21T04:56:50.869Z" agent="Mozilla/5.0 (Macintosh; Intel Mac OS X 10_15_7) AppleWebKit/537.36 (KHTML, like Gecko) Chrome/121.0.0.0 Safari/537.36" etag="s5k3VIdG34icGts6pclX" version="23.1.5" type="github">
  <diagram name="Page-1" id="ljHkqZAnSOCg1GNqxGZW">
    <mxGraphModel dx="1242" dy="817" grid="1" gridSize="10" guides="1" tooltips="1" connect="1" arrows="1" fold="1" page="1" pageScale="1" pageWidth="1654" pageHeight="1169" math="0" shadow="0">
      <root>
        <mxCell id="0" />
        <mxCell id="1" parent="0" />
        <mxCell id="t7buzby4ZerqmVHVCHEI-2" value="Tenant USZ" style="rounded=0;whiteSpace=wrap;html=1;align=left;verticalAlign=top;" parent="1" vertex="1">
          <mxGeometry x="361" y="40" width="1199" height="420" as="geometry" />
        </mxCell>
        <mxCell id="t7buzby4ZerqmVHVCHEI-3" value="Internal IT" style="rounded=0;whiteSpace=wrap;html=1;align=left;verticalAlign=top;" parent="1" vertex="1">
          <mxGeometry x="40" y="40" width="160" height="240" as="geometry" />
        </mxCell>
        <mxCell id="t7buzby4ZerqmVHVCHEI-6" value="SPHN Connector" style="swimlane;" parent="1" vertex="1">
          <mxGeometry x="50" y="100" width="140" height="70" as="geometry" />
        </mxCell>
        <mxCell id="t7buzby4ZerqmVHVCHEI-9" style="edgeStyle=orthogonalEdgeStyle;rounded=0;orthogonalLoop=1;jettySize=auto;html=1;exitX=0.5;exitY=0;exitDx=0;exitDy=0;entryX=0.5;entryY=1;entryDx=0;entryDy=0;" parent="1" source="t7buzby4ZerqmVHVCHEI-7" target="t7buzby4ZerqmVHVCHEI-8" edge="1">
          <mxGeometry relative="1" as="geometry" />
        </mxCell>
        <mxCell id="t7buzby4ZerqmVHVCHEI-72" style="edgeStyle=orthogonalEdgeStyle;rounded=0;orthogonalLoop=1;jettySize=auto;html=1;exitX=0.5;exitY=0;exitDx=0;exitDy=0;entryX=0.5;entryY=1;entryDx=0;entryDy=0;" parent="1" source="t7buzby4ZerqmVHVCHEI-7" target="t7buzby4ZerqmVHVCHEI-70" edge="1">
          <mxGeometry relative="1" as="geometry" />
        </mxCell>
        <mxCell id="t7buzby4ZerqmVHVCHEI-7" value="Einstein" style="swimlane;" parent="1" vertex="1">
          <mxGeometry x="720" y="280" width="238" height="120" as="geometry">
            <mxRectangle x="390" y="100" width="90" height="30" as="alternateBounds" />
          </mxGeometry>
        </mxCell>
        <mxCell id="t7buzby4ZerqmVHVCHEI-20" value="" style="image;aspect=fixed;html=1;points=[];align=center;fontSize=12;image=img/lib/azure2/databases/Azure_Database_PostgreSQL_Server.svg;" parent="t7buzby4ZerqmVHVCHEI-7" vertex="1">
          <mxGeometry x="119" y="34.5" width="48" height="64" as="geometry" />
        </mxCell>
        <mxCell id="t7buzby4ZerqmVHVCHEI-66" value="" style="shape=image;verticalLabelPosition=bottom;labelBackgroundColor=default;verticalAlign=top;aspect=fixed;imageAspect=0;image=https://dotnetrdf.org/img/avatar-icon.png;" parent="t7buzby4ZerqmVHVCHEI-7" vertex="1">
          <mxGeometry x="34" y="37.75" width="57.5" height="57.5" as="geometry" />
        </mxCell>
        <mxCell id="t7buzby4ZerqmVHVCHEI-4" value="" style="shape=image;html=1;verticalAlign=top;verticalLabelPosition=bottom;labelBackgroundColor=#ffffff;imageAspect=0;aspect=fixed;image=https://cdn1.iconfinder.com/data/icons/unicons-line-vol-3/24/docker-128.png" parent="t7buzby4ZerqmVHVCHEI-7" vertex="1">
          <mxGeometry x="211" width="25.75" height="25.75" as="geometry" />
        </mxCell>
        <mxCell id="t7buzby4ZerqmVHVCHEI-8" value="TuneInsight" style="swimlane;" parent="1" vertex="1">
          <mxGeometry x="719.1" y="102" width="200" height="120" as="geometry">
            <mxRectangle x="640" y="100" width="110" height="30" as="alternateBounds" />
          </mxGeometry>
        </mxCell>
        <mxCell id="t7buzby4ZerqmVHVCHEI-69" value="" style="shape=image;verticalLabelPosition=bottom;labelBackgroundColor=default;verticalAlign=top;aspect=fixed;imageAspect=0;image=https://www.swissmadesoftware.org/.imaging/w500-png/dam/fda32e5b-2309-4757-8be7-5b8901e7afe0/Tune-Insight_logo.png;" parent="t7buzby4ZerqmVHVCHEI-8" vertex="1">
          <mxGeometry x="52.90000000000009" y="53.329999999999984" width="98.21" height="22" as="geometry" />
        </mxCell>
        <mxCell id="t7buzby4ZerqmVHVCHEI-57" style="edgeStyle=orthogonalEdgeStyle;rounded=0;orthogonalLoop=1;jettySize=auto;html=1;exitX=1;exitY=0.5;exitDx=0;exitDy=0;entryX=0;entryY=0.5;entryDx=0;entryDy=0;" parent="1" source="t7buzby4ZerqmVHVCHEI-49" target="t7buzby4ZerqmVHVCHEI-7" edge="1">
          <mxGeometry relative="1" as="geometry" />
        </mxCell>
        <mxCell id="t7buzby4ZerqmVHVCHEI-49" value="Landing Zone (Raw Data)" style="rounded=0;whiteSpace=wrap;html=1;align=left;verticalAlign=top;" parent="1" vertex="1">
          <mxGeometry x="361" y="100" width="259" height="120" as="geometry" />
        </mxCell>
        <mxCell id="t7buzby4ZerqmVHVCHEI-50" value="RDF" style="sketch=0;outlineConnect=0;fontColor=#232F3E;gradientColor=none;fillColor=#7AA116;strokeColor=none;dashed=0;verticalLabelPosition=bottom;verticalAlign=top;align=center;html=1;fontSize=12;fontStyle=0;aspect=fixed;pointerEvents=1;shape=mxgraph.aws4.bucket;" parent="1" vertex="1">
          <mxGeometry x="398" y="147" width="28.85" height="30" as="geometry" />
        </mxCell>
        <mxCell id="t7buzby4ZerqmVHVCHEI-51" value="DICOM" style="sketch=0;outlineConnect=0;fontColor=#232F3E;gradientColor=none;fillColor=#7AA116;strokeColor=none;dashed=0;verticalLabelPosition=bottom;verticalAlign=top;align=center;html=1;fontSize=12;fontStyle=0;aspect=fixed;pointerEvents=1;shape=mxgraph.aws4.bucket;" parent="1" vertex="1">
          <mxGeometry x="450" y="147" width="28.85" height="30" as="geometry" />
        </mxCell>
        <mxCell id="t7buzby4ZerqmVHVCHEI-52" value="OMICS" style="sketch=0;outlineConnect=0;fontColor=#232F3E;gradientColor=none;fillColor=#7AA116;strokeColor=none;dashed=0;verticalLabelPosition=bottom;verticalAlign=top;align=center;html=1;fontSize=12;fontStyle=0;aspect=fixed;pointerEvents=1;shape=mxgraph.aws4.bucket;" parent="1" vertex="1">
          <mxGeometry x="501" y="147" width="28.85" height="30" as="geometry" />
        </mxCell>
        <mxCell id="t7buzby4ZerqmVHVCHEI-53" value="Parquet" style="sketch=0;outlineConnect=0;fontColor=#232F3E;gradientColor=none;fillColor=#7AA116;strokeColor=none;dashed=0;verticalLabelPosition=bottom;verticalAlign=top;align=center;html=1;fontSize=12;fontStyle=0;aspect=fixed;pointerEvents=1;shape=mxgraph.aws4.bucket;" parent="1" vertex="1">
          <mxGeometry x="552.58" y="147" width="28.85" height="30" as="geometry" />
        </mxCell>
        <mxCell id="t7buzby4ZerqmVHVCHEI-56" value="" style="shape=image;verticalLabelPosition=bottom;labelBackgroundColor=default;verticalAlign=top;aspect=fixed;imageAspect=0;image=https://min.io/resources/img/logo/MINIO_wordmark.png;" parent="1" vertex="1">
          <mxGeometry x="503.85" y="106" width="110.51" height="16.67" as="geometry" />
        </mxCell>
        <mxCell id="t7buzby4ZerqmVHVCHEI-63" value="Structured Data&lt;br&gt;RDF" style="html=1;shadow=0;dashed=0;align=center;verticalAlign=middle;shape=mxgraph.arrows2.arrow;dy=0;dx=10;notch=0;fillColor=#d5e8d4;strokeColor=#82b366;" parent="1" vertex="1">
          <mxGeometry x="201" y="122.67" width="160" height="43" as="geometry" />
        </mxCell>
        <mxCell id="t7buzby4ZerqmVHVCHEI-64" value="Unstrucrured Data&lt;br style=&quot;border-color: var(--border-color);&quot;&gt;&lt;span style=&quot;&quot;&gt;(DICOM / OMICS / Images)&lt;/span&gt;" style="html=1;shadow=0;dashed=0;align=center;verticalAlign=middle;shape=mxgraph.arrows2.arrow;dy=0;dx=10;notch=0;fillColor=#d5e8d4;strokeColor=#82b366;" parent="1" vertex="1">
          <mxGeometry x="200" y="190" width="160" height="42.5" as="geometry" />
        </mxCell>
        <mxCell id="t7buzby4ZerqmVHVCHEI-65" value="Files" style="sketch=0;html=1;aspect=fixed;strokeColor=none;shadow=0;fillColor=#3B8DF1;verticalAlign=top;labelPosition=center;verticalLabelPosition=bottom;shape=mxgraph.gcp2.files" parent="1" vertex="1">
          <mxGeometry x="120" y="182.75" width="58.76" height="57" as="geometry" />
        </mxCell>
        <mxCell id="t7buzby4ZerqmVHVCHEI-70" value="Data Delivery Service" style="swimlane;" parent="1" vertex="1">
          <mxGeometry x="931.5" y="102" width="200" height="120" as="geometry">
            <mxRectangle x="640" y="100" width="110" height="30" as="alternateBounds" />
          </mxGeometry>
        </mxCell>
      </root>
    </mxGraphModel>
  </diagram>
</mxfile>
